<?xml version="1.0" encoding="utf-8"?>
<svg xmlns="http://www.w3.org/2000/svg" fill="none" height="100%" overflow="visible" preserveAspectRatio="none" style="display: block;" viewBox="0 0 45 45" width="100%">
<g id="Frame 1116607219">
<rect fill="var(--fill-0, #004A7C)" height="45" rx="22.5" width="45"/>
<path d="M22.7061 23.1636L25.451 21.5053L28.1959 23.1636L27.4719 20.0279L29.885 17.9474L26.7178 17.676L25.451 14.7212L24.1841 17.676L21.017 17.9474L23.43 20.0279L22.7061 23.1636ZM23.2792 31.003H30.0358C29.8951 31.5256 29.6537 31.9477 29.3119 32.2694C28.97 32.591 28.5276 32.792 27.9847 32.8724L14.8335 34.4704C14.1699 34.5709 13.5714 34.4153 13.0381 34.0037C12.5049 33.592 12.1984 33.0541 12.1188 32.39L10.5201 19.2138C10.4397 18.5504 10.6005 17.9575 11.0027 17.4348C11.4049 16.9122 11.9378 16.6107 12.6014 16.5303L13.9889 16.3494V18.7615L12.903 18.9123L14.5318 32.0884L23.2792 31.003ZM18.815 28.5909C18.1514 28.5909 17.5836 28.3549 17.1114 27.8829C16.6393 27.411 16.4028 26.8429 16.402 26.1788V12.9121C16.402 12.2488 16.6384 11.6811 17.1114 11.2092C17.5844 10.7372 18.1522 10.5008 18.815 10.5H32.0869C32.7505 10.5 33.3188 10.7364 33.7918 11.2092C34.2647 11.6819 34.5008 12.2496 34.5 12.9121V26.1788C34.5 26.8421 34.2639 27.4101 33.7918 27.8829C33.3196 28.3557 32.7513 28.5917 32.0869 28.5909H18.815ZM18.815 26.1788H32.0869V12.9121H18.815V26.1788Z" fill="var(--fill-0, white)" id="Vector"/>
</g>
</svg>